<?xml version="1.0" encoding="UTF-8" standalone="no"?>
<!DOCTYPE svg PUBLIC "-//W3C//DTD SVG 1.1//EN"
 "http://www.w3.org/Graphics/SVG/1.1/DTD/svg11.dtd">
<!-- Generated by graphviz version 2.47.3 (20210619.1520)
 -->
<!-- Title: dependencies Pages: 1 -->
<svg width="683pt" height="261pt"
 viewBox="0.00 0.00 683.00 260.80" xmlns="http://www.w3.org/2000/svg" xmlns:xlink="http://www.w3.org/1999/xlink">
<g id="graph0" class="graph" transform="scale(1 1) rotate(0) translate(4 256.8)">
<title>dependencies</title>
<polygon fill="white" stroke="transparent" points="-4,4 -4,-256.8 679,-256.8 679,4 -4,4"/>
<text text-anchor="middle" x="337.5" y="-8.2" font-family="sans-serif" font-size="14.00">dependencies</text>
<g id="clust1" class="cluster">
<title>cluster_AppModule</title>
<polygon fill="none" stroke="black" stroke-dasharray="1,5" points="8,-108.8 8,-236.8 503,-236.8 503,-108.8 8,-108.8"/>
</g>
<g id="clust3" class="cluster">
<title>cluster_AppModule_imports</title>
<polygon fill="none" stroke="black" points="154,-116.8 154,-168.8 495,-168.8 495,-116.8 154,-116.8"/>
</g>
<g id="clust6" class="cluster">
<title>cluster_AppModule_providers</title>
<polygon fill="none" stroke="black" points="16,-116.8 16,-168.8 146,-168.8 146,-116.8 16,-116.8"/>
</g>
<g id="clust7" class="cluster">
<title>cluster_CoreModule</title>
<polygon fill="none" stroke="black" stroke-dasharray="1,5" points="511,-176.8 511,-244.8 667,-244.8 667,-176.8 511,-176.8"/>
</g>
<g id="clust10" class="cluster">
<title>cluster_CoreModule_exports</title>
<polygon fill="none" stroke="black" points="519,-184.8 519,-236.8 659,-236.8 659,-184.8 519,-184.8"/>
</g>
<g id="clust19" class="cluster">
<title>cluster_UsersModule</title>
<polygon fill="none" stroke="black" stroke-dasharray="1,5" points="130,-32.8 130,-100.8 286,-100.8 286,-32.8 130,-32.8"/>
</g>
<g id="clust24" class="cluster">
<title>cluster_UsersModule_providers</title>
<polygon fill="none" stroke="black" points="138,-40.8 138,-92.8 278,-92.8 278,-40.8 138,-40.8"/>
</g>
<!-- CoreModule -->
<g id="node1" class="node">
<title>CoreModule</title>
<polygon fill="#8dd3c7" stroke="black" points="487.26,-160.8 484.26,-164.8 463.26,-164.8 460.26,-160.8 400.74,-160.8 400.74,-124.8 487.26,-124.8 487.26,-160.8"/>
<text text-anchor="middle" x="444" y="-138.6" font-family="Times,serif" font-size="14.00">CoreModule</text>
</g>
<!-- AppModule -->
<g id="node4" class="node">
<title>AppModule</title>
<polygon fill="#8dd3c7" stroke="black" points="308.66,-228.8 305.66,-232.8 284.66,-232.8 281.66,-228.8 225.34,-228.8 225.34,-192.8 308.66,-192.8 308.66,-228.8"/>
<text text-anchor="middle" x="267" y="-206.6" font-family="Times,serif" font-size="14.00">AppModule</text>
</g>
<!-- CoreModule&#45;&gt;AppModule -->
<g id="edge1" class="edge">
<title>CoreModule&#45;&gt;AppModule</title>
<path fill="none" stroke="black" d="M429.54,-161.07C429.54,-179.36 429.54,-204.8 429.54,-204.8 429.54,-204.8 318.86,-204.8 318.86,-204.8"/>
<polygon fill="black" stroke="black" points="318.86,-201.3 308.86,-204.8 318.86,-208.3 318.86,-201.3"/>
</g>
<!-- ...exportProvider()  -->
<g id="node6" class="node">
<title>...exportProvider() </title>
<polygon fill="#fb8072" stroke="black" points="650.8,-228.8 527.2,-228.8 527.2,-192.8 650.8,-192.8 650.8,-228.8"/>
<text text-anchor="middle" x="589" y="-206.6" font-family="Times,serif" font-size="14.00">...exportProvider() </text>
</g>
<!-- CoreModule&#45;&gt;...exportProvider()  -->
<g id="edge5" class="edge">
<title>CoreModule&#45;&gt;...exportProvider() </title>
<path fill="none" stroke="black" stroke-dasharray="5,2" d="M458.46,-161.09C458.46,-183.01 458.46,-216.8 458.46,-216.8 458.46,-216.8 517.17,-216.8 517.17,-216.8"/>
<polygon fill="black" stroke="black" points="517.17,-220.3 527.17,-216.8 517.17,-213.3 517.17,-220.3"/>
</g>
<!-- DatabaseModule -->
<g id="node2" class="node">
<title>DatabaseModule</title>
<polygon fill="#8dd3c7" stroke="black" points="382.35,-160.8 379.35,-164.8 358.35,-164.8 355.35,-160.8 271.65,-160.8 271.65,-124.8 382.35,-124.8 382.35,-160.8"/>
<text text-anchor="middle" x="327" y="-138.6" font-family="Times,serif" font-size="14.00">DatabaseModule</text>
</g>
<!-- DatabaseModule&#45;&gt;AppModule -->
<g id="edge2" class="edge">
<title>DatabaseModule&#45;&gt;AppModule</title>
<path fill="none" stroke="black" d="M290.2,-161.02C290.2,-161.02 290.2,-182.53 290.2,-182.53"/>
<polygon fill="black" stroke="black" points="286.7,-182.53 290.2,-192.53 293.7,-182.53 286.7,-182.53"/>
</g>
<!-- UsersModule -->
<g id="node3" class="node">
<title>UsersModule</title>
<polygon fill="#8dd3c7" stroke="black" points="253.92,-160.8 250.92,-164.8 229.92,-164.8 226.92,-160.8 162.08,-160.8 162.08,-124.8 253.92,-124.8 253.92,-160.8"/>
<text text-anchor="middle" x="208" y="-138.6" font-family="Times,serif" font-size="14.00">UsersModule</text>
</g>
<!-- UsersModule&#45;&gt;AppModule -->
<g id="edge3" class="edge">
<title>UsersModule&#45;&gt;AppModule</title>
<path fill="none" stroke="black" d="M239.44,-161.02C239.44,-161.02 239.44,-182.53 239.44,-182.53"/>
<polygon fill="black" stroke="black" points="235.94,-182.53 239.44,-192.53 242.94,-182.53 235.94,-182.53"/>
</g>
<!-- AppService -->
<g id="node5" class="node">
<title>AppService</title>
<ellipse fill="#fdb462" stroke="black" cx="81" cy="-142.8" rx="56.74" ry="18"/>
<text text-anchor="middle" x="81" y="-138.6" font-family="Times,serif" font-size="14.00">AppService</text>
</g>
<!-- AppService&#45;&gt;AppModule -->
<g id="edge4" class="edge">
<title>AppService&#45;&gt;AppModule</title>
<path fill="none" stroke="black" d="M81,-161.02C81,-181.17 81,-210.8 81,-210.8 81,-210.8 215.26,-210.8 215.26,-210.8"/>
<polygon fill="black" stroke="black" points="215.26,-214.3 225.26,-210.8 215.26,-207.3 215.26,-214.3"/>
</g>
<!-- UsersService -->
<g id="node7" class="node">
<title>UsersService</title>
<ellipse fill="#fdb462" stroke="black" cx="208" cy="-66.8" rx="61.95" ry="18"/>
<text text-anchor="middle" x="208" y="-62.6" font-family="Times,serif" font-size="14.00">UsersService</text>
</g>
<!-- UsersService&#45;&gt;UsersModule -->
<g id="edge6" class="edge">
<title>UsersService&#45;&gt;UsersModule</title>
<path fill="none" stroke="black" d="M208,-84.81C208,-84.81 208,-114.65 208,-114.65"/>
<polygon fill="black" stroke="black" points="204.5,-114.65 208,-124.65 211.5,-114.65 204.5,-114.65"/>
</g>
</g>
</svg>
